<mxfile host="app.diagrams.net" modified="2024-03-23T22:32:11.318Z" agent="Mozilla/5.0 (Windows NT 10.0; Win64; x64) AppleWebKit/537.36 (KHTML, like Gecko) Chrome/123.0.0.0 Safari/537.36" etag="Pkx1o_C-yc6jPcGaZwLi" version="24.0.8" type="device">
  <diagram name="Page-1" id="bheq17WEYrVu1cFGg6tN">
    <mxGraphModel dx="1050" dy="565" grid="0" gridSize="10" guides="1" tooltips="1" connect="1" arrows="1" fold="1" page="1" pageScale="1" pageWidth="850" pageHeight="1100" math="0" shadow="0">
      <root>
        <mxCell id="0" />
        <mxCell id="1" parent="0" />
        <mxCell id="eYCryditQCLKWW8v_9Gd-3" value="" style="rounded=0;whiteSpace=wrap;html=1;" parent="1" vertex="1">
          <mxGeometry x="350" y="190" width="180" height="190" as="geometry" />
        </mxCell>
        <mxCell id="eYCryditQCLKWW8v_9Gd-4" value="&lt;b&gt;&lt;font style=&quot;font-size: 14px;&quot;&gt;CodeSphere&lt;/font&gt;&lt;/b&gt;" style="ellipse;whiteSpace=wrap;html=1;fillColor=#dae8fc;strokeColor=#6c8ebf;" parent="1" vertex="1">
          <mxGeometry x="365" y="250" width="150" height="80" as="geometry" />
        </mxCell>
        <mxCell id="OujtlWWBv1zwHGfKpwZ--9" value="" style="edgeStyle=orthogonalEdgeStyle;rounded=0;orthogonalLoop=1;jettySize=auto;html=1;" parent="1" source="eYCryditQCLKWW8v_9Gd-9" target="eYCryditQCLKWW8v_9Gd-13" edge="1">
          <mxGeometry relative="1" as="geometry">
            <Array as="points">
              <mxPoint x="152" y="170" />
              <mxPoint x="152" y="285" />
            </Array>
          </mxGeometry>
        </mxCell>
        <mxCell id="eYCryditQCLKWW8v_9Gd-9" value="Contestant" style="shape=umlActor;verticalLabelPosition=bottom;verticalAlign=top;html=1;outlineConnect=0;fillColor=#dae8fc;strokeColor=#6c8ebf;" parent="1" vertex="1">
          <mxGeometry x="180" y="140" width="30" height="60" as="geometry" />
        </mxCell>
        <mxCell id="eYCryditQCLKWW8v_9Gd-13" value="Problem-Setter" style="shape=umlActor;verticalLabelPosition=bottom;verticalAlign=top;html=1;outlineConnect=0;fillColor=#dae8fc;strokeColor=#6c8ebf;" parent="1" vertex="1">
          <mxGeometry x="180" y="255" width="30" height="60" as="geometry" />
        </mxCell>
        <mxCell id="eYCryditQCLKWW8v_9Gd-17" value="Admin" style="shape=umlActor;verticalLabelPosition=bottom;verticalAlign=top;html=1;outlineConnect=0;fillColor=#dae8fc;strokeColor=#6c8ebf;" parent="1" vertex="1">
          <mxGeometry x="180" y="370" width="30" height="60" as="geometry" />
        </mxCell>
        <mxCell id="eYCryditQCLKWW8v_9Gd-20" value="Email" style="rounded=0;whiteSpace=wrap;html=1;fillColor=#dae8fc;strokeColor=#6c8ebf;" parent="1" vertex="1">
          <mxGeometry x="620" y="260" width="120" height="50" as="geometry" />
        </mxCell>
        <mxCell id="eYCryditQCLKWW8v_9Gd-22" value="" style="endArrow=none;html=1;rounded=0;" parent="1" target="eYCryditQCLKWW8v_9Gd-4" edge="1">
          <mxGeometry width="50" height="50" relative="1" as="geometry">
            <mxPoint x="210" y="180" as="sourcePoint" />
            <mxPoint x="340" y="250" as="targetPoint" />
          </mxGeometry>
        </mxCell>
        <mxCell id="eYCryditQCLKWW8v_9Gd-24" value="" style="endArrow=none;html=1;rounded=0;entryX=0.055;entryY=0.727;entryDx=0;entryDy=0;entryPerimeter=0;" parent="1" target="eYCryditQCLKWW8v_9Gd-4" edge="1">
          <mxGeometry width="50" height="50" relative="1" as="geometry">
            <mxPoint x="210" y="410" as="sourcePoint" />
            <mxPoint x="260" y="360" as="targetPoint" />
          </mxGeometry>
        </mxCell>
        <mxCell id="eYCryditQCLKWW8v_9Gd-26" value="" style="endArrow=none;html=1;rounded=0;entryX=0;entryY=0.5;entryDx=0;entryDy=0;" parent="1" source="eYCryditQCLKWW8v_9Gd-4" target="eYCryditQCLKWW8v_9Gd-20" edge="1">
          <mxGeometry width="50" height="50" relative="1" as="geometry">
            <mxPoint x="515" y="278.75" as="sourcePoint" />
            <mxPoint x="605" y="272.5" as="targetPoint" />
            <Array as="points" />
          </mxGeometry>
        </mxCell>
        <mxCell id="OujtlWWBv1zwHGfKpwZ--10" value="IS-A" style="text;html=1;align=center;verticalAlign=middle;whiteSpace=wrap;rounded=0;" parent="1" vertex="1">
          <mxGeometry x="95" y="215" width="60" height="30" as="geometry" />
        </mxCell>
      </root>
    </mxGraphModel>
  </diagram>
</mxfile>
